<svg xmlns="http://www.w3.org/2000/svg" width="150" height="50" viewBox="0 0 150 50">
  <g fill="none" fill-rule="evenodd">
    <rect width="150" height="50" fill="#FFF"/>
    <rect width="150" height="50"/>
    <polygon fill="#000" fill-rule="nonzero" points="5.905 32.858 5.905 21.018 5.945 21.018 10.625 32.858 11.885 32.858 16.585 21.018 16.625 21.018 16.625 32.858 18.605 32.858 18.605 18.698 15.525 18.698 11.345 29.578 11.305 29.578 7.065 18.698 3.985 18.698 3.985 32.858"/>
    <polygon fill="#000" fill-rule="nonzero" points="24.025 32.858 24.025 18.698 22.045 18.698 22.045 32.858"/>
    <path fill="#000" fill-rule="nonzero" d="M34.2050602,33.2181496 C35.4583936,33.2181496 36.5317269,32.9814829 37.4250602,32.5081496 C38.3183936,32.0348162 39.0450602,31.4181496 39.6050602,30.6581496 L39.6050602,30.6581496 L38.0250602,29.5781496 C37.5983936,30.1914829 37.0583936,30.6581496 36.4050602,30.9781496 C35.7517269,31.2981496 35.0250602,31.4581496 34.2250602,31.4581496 C33.4117269,31.4581496 32.6750602,31.3114829 32.0150602,31.0181496 C31.3550602,30.7248162 30.7950602,30.3214829 30.3350602,29.8081496 C29.8750602,29.2948162 29.5217269,28.6914829 29.2750602,27.9981496 C29.0283936,27.3048162 28.9050602,26.5581496 28.9050602,25.7581496 C28.9050602,24.9848162 29.0317269,24.2548162 29.2850602,23.5681496 C29.5383936,22.8814829 29.8983936,22.2781496 30.3650602,21.7581496 C30.8317269,21.2381496 31.3950602,20.8281496 32.0550602,20.5281496 C32.7150602,20.2281496 33.4583936,20.0781496 34.2850602,20.0781496 C35.0183936,20.0781496 35.7017269,20.2348162 36.3350602,20.5481496 C36.9683936,20.8614829 37.4583936,21.2581496 37.8050602,21.7381496 L37.8050602,21.7381496 L39.3650602,20.5381496 C39.0983936,20.1781496 38.7783936,19.8614829 38.4050602,19.5881496 C38.0317269,19.3148162 37.6183936,19.0848162 37.1650602,18.8981496 C36.7117269,18.7114829 36.2383936,18.5714829 35.7450602,18.4781496 C35.2517269,18.3848162 34.7650602,18.3381496 34.2850602,18.3381496 C33.2050602,18.3381496 32.2050602,18.5181496 31.2850602,18.8781496 C30.3650602,19.2381496 29.5683936,19.7414829 28.8950602,20.3881496 C28.2217269,21.0348162 27.6950602,21.8148162 27.3150602,22.7281496 C26.9350602,23.6414829 26.7450602,24.6514829 26.7450602,25.7581496 C26.7450602,26.8514829 26.9317269,27.8548162 27.3050602,28.7681496 C27.6783936,29.6814829 28.1950602,30.4681496 28.8550602,31.1281496 C29.5150602,31.7881496 30.3017269,32.3014829 31.2150602,32.6681496 C32.1283936,33.0348162 33.1250602,33.2181496 34.2050602,33.2181496 Z"/>
    <polygon fill="#000" fill-rule="nonzero" points="43.605 32.858 43.605 26.378 50.765 26.378 50.765 32.858 52.765 32.858 52.765 18.698 50.765 18.698 50.765 24.618 43.605 24.618 43.605 18.698 41.625 18.698 41.625 32.858"/>
    <polygon fill="#000" fill-rule="nonzero" points="65.585 32.858 65.585 31.098 58.185 31.098 58.185 26.378 64.865 26.378 64.865 24.678 58.185 24.678 58.185 20.438 65.285 20.438 65.285 18.698 56.205 18.698 56.205 32.858"/>
    <polygon fill="#000" fill-rule="nonzero" points="76.525 32.858 76.525 31.098 70.205 31.098 70.205 18.698 68.225 18.698 68.225 32.858"/>
    <polygon fill="#000" fill-rule="nonzero" points="86.745 32.858 86.745 31.098 80.425 31.098 80.425 18.698 78.445 18.698 78.445 32.858"/>
    <polygon fill="#000" fill-rule="nonzero" points="98.045 32.858 98.045 31.098 90.645 31.098 90.645 26.378 97.325 26.378 97.325 24.678 90.645 24.678 90.645 20.438 97.745 20.438 97.745 18.698 88.665 18.698 88.665 32.858"/>
    <polygon fill="#000" fill-rule="nonzero" points="115.145 32.858 115.145 31.098 107.025 31.098 115.025 20.438 115.025 18.698 104.785 18.698 104.785 20.438 112.605 20.438 104.625 31.118 104.625 32.858"/>
    <path fill="#000" fill-rule="nonzero" d="M123.80506,33.2181496 C124.88506,33.2181496 125.88506,33.0348162 126.80506,32.6681496 C127.72506,32.3014829 128.518394,31.7881496 129.18506,31.1281496 C129.851727,30.4681496 130.37506,29.6814829 130.75506,28.7681496 C131.13506,27.8548162 131.32506,26.8514829 131.32506,25.7581496 C131.32506,24.6514829 131.13506,23.6414829 130.75506,22.7281496 C130.37506,21.8148162 129.851727,21.0348162 129.18506,20.3881496 C128.518394,19.7414829 127.72506,19.2381496 126.80506,18.8781496 C125.88506,18.5181496 124.88506,18.3381496 123.80506,18.3381496 C122.72506,18.3381496 121.728394,18.5181496 120.81506,18.8781496 C119.901727,19.2381496 119.111727,19.7414829 118.44506,20.3881496 C117.778394,21.0348162 117.258394,21.8148162 116.88506,22.7281496 C116.511727,23.6414829 116.32506,24.6514829 116.32506,25.7581496 C116.32506,26.8514829 116.511727,27.8548162 116.88506,28.7681496 C117.258394,29.6814829 117.778394,30.4681496 118.44506,31.1281496 C119.111727,31.7881496 119.901727,32.3014829 120.81506,32.6681496 C121.728394,33.0348162 122.72506,33.2181496 123.80506,33.2181496 Z"/>
    <path fill="#F7B500" fill-rule="nonzero" d="M123.80506,31.4381496 C122.991727,31.4381496 122.258394,31.2914829 121.60506,30.9981496 C120.951727,30.7048162 120.391727,30.3014829 119.92506,29.7881496 C119.458394,29.2748162 119.098394,28.6714829 118.84506,27.9781496 C118.591727,27.2848162 118.46506,26.5448162 118.46506,25.7581496 C118.46506,24.9848162 118.591727,24.2548162 118.84506,23.5681496 C119.098394,22.8814829 119.45506,22.2781496 119.91506,21.7581496 C120.37506,21.2381496 120.93506,20.8281496 121.59506,20.5281496 C122.25506,20.2281496 122.991727,20.0781496 123.80506,20.0781496 C124.631727,20.0781496 125.37506,20.2281496 126.03506,20.5281496 C126.69506,20.8281496 127.258394,21.2381496 127.72506,21.7581496 C128.191727,22.2781496 128.551727,22.8814829 128.80506,23.5681496 C129.058394,24.2548162 129.18506,24.9848162 129.18506,25.7581496 C129.18506,26.5448162 129.058394,27.2848162 128.80506,27.9781496 C128.551727,28.6714829 128.191727,29.2748162 127.72506,29.7881496 C127.258394,30.3014829 126.691727,30.7048162 126.02506,30.9981496 C125.358394,31.2914829 124.618394,31.4381496 123.80506,31.4381496 Z"/>
    <path fill="#000" fill-rule="nonzero" d="M139.42506,33.2181496 C140.358394,33.2181496 141.171727,33.0614829 141.86506,32.7481496 C142.558394,32.4348162 143.131727,32.0181496 143.58506,31.4981496 C144.038394,30.9781496 144.37506,30.3814829 144.59506,29.7081496 C144.81506,29.0348162 144.92506,28.3381496 144.92506,27.6181496 L144.92506,27.6181496 L144.92506,18.6981496 L142.94506,18.6981496 L142.94506,27.4981496 C142.94506,27.9781496 142.88506,28.4548162 142.76506,28.9281496 C142.64506,29.4014829 142.448394,29.8248162 142.17506,30.1981496 C141.901727,30.5714829 141.538394,30.8714829 141.08506,31.0981496 C140.631727,31.3248162 140.078394,31.4381496 139.42506,31.4381496 C138.758394,31.4381496 138.201727,31.3248162 137.75506,31.0981496 C137.308394,30.8714829 136.948394,30.5714829 136.67506,30.1981496 C136.401727,29.8248162 136.20506,29.4014829 136.08506,28.9281496 C135.96506,28.4548162 135.90506,27.9781496 135.90506,27.4981496 L135.90506,27.4981496 L135.90506,18.6981496 L133.92506,18.6981496 L133.92506,27.6181496 C133.92506,28.3381496 134.03506,29.0348162 134.25506,29.7081496 C134.47506,30.3814829 134.811727,30.9781496 135.26506,31.4981496 C135.718394,32.0181496 136.291727,32.4348162 136.98506,32.7481496 C137.678394,33.0614829 138.491727,33.2181496 139.42506,33.2181496 Z"/>
  </g>
</svg>
