<svg xmlns="http://www.w3.org/2000/svg" width="150" height="26" viewBox="0 0 150 26">
  <g fill="none" fill-rule="evenodd">
    <rect width="150" height="50" y="-13" fill="#FFF"/>
    <rect width="150" height="26"/>
    <polygon fill="#000" fill-rule="nonzero" points="5.905 19.858 5.905 8.018 5.945 8.018 10.625 19.858 11.885 19.858 16.585 8.018 16.625 8.018 16.625 19.858 18.605 19.858 18.605 5.698 15.525 5.698 11.345 16.578 11.305 16.578 7.065 5.698 3.985 5.698 3.985 19.858"/>
    <polygon fill="#000" fill-rule="nonzero" points="24.025 19.858 24.025 5.698 22.045 5.698 22.045 19.858"/>
    <path fill="#000" fill-rule="nonzero" d="M34.2050602,20.2181496 C35.4583936,20.2181496 36.5317269,19.9814829 37.4250602,19.5081496 C38.3183936,19.0348162 39.0450602,18.4181496 39.6050602,17.6581496 L39.6050602,17.6581496 L38.0250602,16.5781496 C37.5983936,17.1914829 37.0583936,17.6581496 36.4050602,17.9781496 C35.7517269,18.2981496 35.0250602,18.4581496 34.2250602,18.4581496 C33.4117269,18.4581496 32.6750602,18.3114829 32.0150602,18.0181496 C31.3550602,17.7248162 30.7950602,17.3214829 30.3350602,16.8081496 C29.8750602,16.2948162 29.5217269,15.6914829 29.2750602,14.9981496 C29.0283936,14.3048162 28.9050602,13.5581496 28.9050602,12.7581496 C28.9050602,11.9848162 29.0317269,11.2548162 29.2850602,10.5681496 C29.5383936,9.88148291 29.8983936,9.27814958 30.3650602,8.75814958 C30.8317269,8.23814958 31.3950602,7.82814958 32.0550602,7.52814958 C32.7150602,7.22814958 33.4583936,7.07814958 34.2850602,7.07814958 C35.0183936,7.07814958 35.7017269,7.23481625 36.3350602,7.54814958 C36.9683936,7.86148291 37.4583936,8.25814958 37.8050602,8.73814958 L37.8050602,8.73814958 L39.3650602,7.53814958 C39.0983936,7.17814958 38.7783936,6.86148291 38.4050602,6.58814958 C38.0317269,6.31481625 37.6183936,6.08481625 37.1650602,5.89814958 C36.7117269,5.71148291 36.2383936,5.57148291 35.7450602,5.47814958 C35.2517269,5.38481625 34.7650602,5.33814958 34.2850602,5.33814958 C33.2050602,5.33814958 32.2050602,5.51814958 31.2850602,5.87814958 C30.3650602,6.23814958 29.5683936,6.74148291 28.8950602,7.38814958 C28.2217269,8.03481625 27.6950602,8.81481625 27.3150602,9.72814958 C26.9350602,10.6414829 26.7450602,11.6514829 26.7450602,12.7581496 C26.7450602,13.8514829 26.9317269,14.8548162 27.3050602,15.7681496 C27.6783936,16.6814829 28.1950602,17.4681496 28.8550602,18.1281496 C29.5150602,18.7881496 30.3017269,19.3014829 31.2150602,19.6681496 C32.1283936,20.0348162 33.1250602,20.2181496 34.2050602,20.2181496 Z"/>
    <polygon fill="#000" fill-rule="nonzero" points="43.605 19.858 43.605 13.378 50.765 13.378 50.765 19.858 52.765 19.858 52.765 5.698 50.765 5.698 50.765 11.618 43.605 11.618 43.605 5.698 41.625 5.698 41.625 19.858"/>
    <polygon fill="#000" fill-rule="nonzero" points="65.585 19.858 65.585 18.098 58.185 18.098 58.185 13.378 64.865 13.378 64.865 11.678 58.185 11.678 58.185 7.438 65.285 7.438 65.285 5.698 56.205 5.698 56.205 19.858"/>
    <polygon fill="#000" fill-rule="nonzero" points="76.525 19.858 76.525 18.098 70.205 18.098 70.205 5.698 68.225 5.698 68.225 19.858"/>
    <polygon fill="#000" fill-rule="nonzero" points="86.745 19.858 86.745 18.098 80.425 18.098 80.425 5.698 78.445 5.698 78.445 19.858"/>
    <polygon fill="#000" fill-rule="nonzero" points="98.045 19.858 98.045 18.098 90.645 18.098 90.645 13.378 97.325 13.378 97.325 11.678 90.645 11.678 90.645 7.438 97.745 7.438 97.745 5.698 88.665 5.698 88.665 19.858"/>
    <polygon fill="#000" fill-rule="nonzero" points="115.145 19.858 115.145 18.098 107.025 18.098 115.025 7.438 115.025 5.698 104.785 5.698 104.785 7.438 112.605 7.438 104.625 18.118 104.625 19.858"/>
    <path fill="#000" fill-rule="nonzero" d="M123.80506,20.2181496 C124.88506,20.2181496 125.88506,20.0348162 126.80506,19.6681496 C127.72506,19.3014829 128.518394,18.7881496 129.18506,18.1281496 C129.851727,17.4681496 130.37506,16.6814829 130.75506,15.7681496 C131.13506,14.8548162 131.32506,13.8514829 131.32506,12.7581496 C131.32506,11.6514829 131.13506,10.6414829 130.75506,9.72814958 C130.37506,8.81481625 129.851727,8.03481625 129.18506,7.38814958 C128.518394,6.74148291 127.72506,6.23814958 126.80506,5.87814958 C125.88506,5.51814958 124.88506,5.33814958 123.80506,5.33814958 C122.72506,5.33814958 121.728394,5.51814958 120.81506,5.87814958 C119.901727,6.23814958 119.111727,6.74148291 118.44506,7.38814958 C117.778394,8.03481625 117.258394,8.81481625 116.88506,9.72814958 C116.511727,10.6414829 116.32506,11.6514829 116.32506,12.7581496 C116.32506,13.8514829 116.511727,14.8548162 116.88506,15.7681496 C117.258394,16.6814829 117.778394,17.4681496 118.44506,18.1281496 C119.111727,18.7881496 119.901727,19.3014829 120.81506,19.6681496 C121.728394,20.0348162 122.72506,20.2181496 123.80506,20.2181496 Z"/>
    <path fill="#F7B500" fill-rule="nonzero" d="M123.80506,18.4381496 C122.991727,18.4381496 122.258394,18.2914829 121.60506,17.9981496 C120.951727,17.7048162 120.391727,17.3014829 119.92506,16.7881496 C119.458394,16.2748162 119.098394,15.6714829 118.84506,14.9781496 C118.591727,14.2848162 118.46506,13.5448162 118.46506,12.7581496 C118.46506,11.9848162 118.591727,11.2548162 118.84506,10.5681496 C119.098394,9.88148291 119.45506,9.27814958 119.91506,8.75814958 C120.37506,8.23814958 120.93506,7.82814958 121.59506,7.52814958 C122.25506,7.22814958 122.991727,7.07814958 123.80506,7.07814958 C124.631727,7.07814958 125.37506,7.22814958 126.03506,7.52814958 C126.69506,7.82814958 127.258394,8.23814958 127.72506,8.75814958 C128.191727,9.27814958 128.551727,9.88148291 128.80506,10.5681496 C129.058394,11.2548162 129.18506,11.9848162 129.18506,12.7581496 C129.18506,13.5448162 129.058394,14.2848162 128.80506,14.9781496 C128.551727,15.6714829 128.191727,16.2748162 127.72506,16.7881496 C127.258394,17.3014829 126.691727,17.7048162 126.02506,17.9981496 C125.358394,18.2914829 124.618394,18.4381496 123.80506,18.4381496 Z"/>
    <path fill="#000" fill-rule="nonzero" d="M139.42506,20.2181496 C140.358394,20.2181496 141.171727,20.0614829 141.86506,19.7481496 C142.558394,19.4348162 143.131727,19.0181496 143.58506,18.4981496 C144.038394,17.9781496 144.37506,17.3814829 144.59506,16.7081496 C144.81506,16.0348162 144.92506,15.3381496 144.92506,14.6181496 L144.92506,14.6181496 L144.92506,5.69814958 L142.94506,5.69814958 L142.94506,14.4981496 C142.94506,14.9781496 142.88506,15.4548162 142.76506,15.9281496 C142.64506,16.4014829 142.448394,16.8248162 142.17506,17.1981496 C141.901727,17.5714829 141.538394,17.8714829 141.08506,18.0981496 C140.631727,18.3248162 140.078394,18.4381496 139.42506,18.4381496 C138.758394,18.4381496 138.201727,18.3248162 137.75506,18.0981496 C137.308394,17.8714829 136.948394,17.5714829 136.67506,17.1981496 C136.401727,16.8248162 136.20506,16.4014829 136.08506,15.9281496 C135.96506,15.4548162 135.90506,14.9781496 135.90506,14.4981496 L135.90506,14.4981496 L135.90506,5.69814958 L133.92506,5.69814958 L133.92506,14.6181496 C133.92506,15.3381496 134.03506,16.0348162 134.25506,16.7081496 C134.47506,17.3814829 134.811727,17.9781496 135.26506,18.4981496 C135.718394,19.0181496 136.291727,19.4348162 136.98506,19.7481496 C137.678394,20.0614829 138.491727,20.2181496 139.42506,20.2181496 Z"/>
  </g>
</svg>
